<mxfile host="app.diagrams.net" agent="Mozilla/5.0 (Macintosh; Intel Mac OS X 10_15_7) AppleWebKit/605.1.15 (KHTML, like Gecko) Version/17.5 Safari/605.1.15" version="24.8.0">
  <diagram id="C5RBs43oDa-KdzZeNtuy" name="Page-1">
    <mxGraphModel dx="684" dy="574" grid="1" gridSize="10" guides="1" tooltips="1" connect="1" arrows="1" fold="1" page="1" pageScale="1" pageWidth="827" pageHeight="1169" math="0" shadow="0">
      <root>
        <mxCell id="WIyWlLk6GJQsqaUBKTNV-0" />
        <mxCell id="WIyWlLk6GJQsqaUBKTNV-1" parent="WIyWlLk6GJQsqaUBKTNV-0" />
        <mxCell id="er_MESsq9Puh83xAirkI-28" style="edgeStyle=orthogonalEdgeStyle;rounded=0;orthogonalLoop=1;jettySize=auto;html=1;entryX=0;entryY=0.5;entryDx=0;entryDy=0;" edge="1" parent="WIyWlLk6GJQsqaUBKTNV-1" source="er_MESsq9Puh83xAirkI-0" target="er_MESsq9Puh83xAirkI-25">
          <mxGeometry relative="1" as="geometry">
            <mxPoint x="240" y="540" as="targetPoint" />
          </mxGeometry>
        </mxCell>
        <mxCell id="er_MESsq9Puh83xAirkI-0" value="&lt;font style=&quot;font-size: 11px;&quot;&gt;input&lt;/font&gt;&lt;font style=&quot;font-size: 11px;&quot;&gt;&lt;font style=&quot;font-size: 11px;&quot;&gt;&amp;nbsp;&lt;/font&gt;&lt;/font&gt;&lt;div&gt;&lt;font style=&quot;font-size: 11px;&quot;&gt;&lt;span style=&quot;text-align: start; line-height: 18.4px; font-family: Aptos, sans-serif;&quot;&gt;costMonthlyRent&lt;/span&gt;&lt;/font&gt;&lt;span style=&quot;font-family: -webkit-standard; font-size: medium; text-align: start;&quot;&gt;&lt;/span&gt;&lt;br&gt;&lt;/div&gt;" style="shape=parallelogram;perimeter=parallelogramPerimeter;whiteSpace=wrap;html=1;fixedSize=1;" vertex="1" parent="WIyWlLk6GJQsqaUBKTNV-1">
          <mxGeometry x="110" y="400" width="120" height="60" as="geometry" />
        </mxCell>
        <mxCell id="er_MESsq9Puh83xAirkI-24" value="" style="edgeStyle=orthogonalEdgeStyle;rounded=0;orthogonalLoop=1;jettySize=auto;html=1;" edge="1" parent="WIyWlLk6GJQsqaUBKTNV-1" source="er_MESsq9Puh83xAirkI-14" target="er_MESsq9Puh83xAirkI-22">
          <mxGeometry relative="1" as="geometry" />
        </mxCell>
        <mxCell id="er_MESsq9Puh83xAirkI-14" value="print&amp;nbsp;&lt;div&gt;&lt;span style=&quot;text-align: start; line-height: 18.4px; font-family: Aptos, sans-serif;&quot;&gt;&lt;font style=&quot;font-size: 12px;&quot;&gt;costPerDay&lt;/font&gt;&lt;/span&gt;&lt;span style=&quot;font-family: -webkit-standard; font-size: medium; text-align: start;&quot;&gt;&lt;/span&gt;&lt;br&gt;&lt;/div&gt;" style="shape=parallelogram;perimeter=parallelogramPerimeter;whiteSpace=wrap;html=1;fixedSize=1;" vertex="1" parent="WIyWlLk6GJQsqaUBKTNV-1">
          <mxGeometry x="450" y="495" width="140" height="60" as="geometry" />
        </mxCell>
        <mxCell id="er_MESsq9Puh83xAirkI-23" style="edgeStyle=orthogonalEdgeStyle;rounded=0;orthogonalLoop=1;jettySize=auto;html=1;" edge="1" parent="WIyWlLk6GJQsqaUBKTNV-1" source="er_MESsq9Puh83xAirkI-21" target="er_MESsq9Puh83xAirkI-0">
          <mxGeometry relative="1" as="geometry" />
        </mxCell>
        <mxCell id="er_MESsq9Puh83xAirkI-21" value="start" style="ellipse;whiteSpace=wrap;html=1;" vertex="1" parent="WIyWlLk6GJQsqaUBKTNV-1">
          <mxGeometry x="130" y="320" width="80" height="50" as="geometry" />
        </mxCell>
        <mxCell id="er_MESsq9Puh83xAirkI-22" value="stop" style="ellipse;whiteSpace=wrap;html=1;" vertex="1" parent="WIyWlLk6GJQsqaUBKTNV-1">
          <mxGeometry x="610" y="500" width="80" height="50" as="geometry" />
        </mxCell>
        <mxCell id="er_MESsq9Puh83xAirkI-27" value="" style="edgeStyle=orthogonalEdgeStyle;rounded=0;orthogonalLoop=1;jettySize=auto;html=1;" edge="1" parent="WIyWlLk6GJQsqaUBKTNV-1" source="er_MESsq9Puh83xAirkI-25" target="er_MESsq9Puh83xAirkI-14">
          <mxGeometry relative="1" as="geometry" />
        </mxCell>
        <mxCell id="er_MESsq9Puh83xAirkI-25" value="&lt;p style=&quot;margin: 0in 0in 0in 13pt; line-height: 18.4px; font-family: Aptos, sans-serif;&quot; class=&quot;MsoNormal&quot;&gt;costPerDay = costMonthlyRent / 30&lt;/p&gt;" style="rounded=0;whiteSpace=wrap;html=1;" vertex="1" parent="WIyWlLk6GJQsqaUBKTNV-1">
          <mxGeometry x="270" y="490" width="160" height="70" as="geometry" />
        </mxCell>
        <mxCell id="er_MESsq9Puh83xAirkI-52" value="" style="edgeStyle=orthogonalEdgeStyle;rounded=0;orthogonalLoop=1;jettySize=auto;html=1;" edge="1" parent="WIyWlLk6GJQsqaUBKTNV-1" source="er_MESsq9Puh83xAirkI-30" target="er_MESsq9Puh83xAirkI-39">
          <mxGeometry relative="1" as="geometry" />
        </mxCell>
        <mxCell id="er_MESsq9Puh83xAirkI-30" value="&lt;span style=&quot;font-size: 11px;&quot;&gt;input&lt;/span&gt;&lt;div&gt;&lt;span style=&quot;font-size: 11px;&quot;&gt;milesTraveled&lt;/span&gt;&lt;/div&gt;" style="shape=parallelogram;perimeter=parallelogramPerimeter;whiteSpace=wrap;html=1;fixedSize=1;" vertex="1" parent="WIyWlLk6GJQsqaUBKTNV-1">
          <mxGeometry x="124" y="110" width="120" height="60" as="geometry" />
        </mxCell>
        <mxCell id="er_MESsq9Puh83xAirkI-31" value="" style="edgeStyle=orthogonalEdgeStyle;rounded=0;orthogonalLoop=1;jettySize=auto;html=1;" edge="1" parent="WIyWlLk6GJQsqaUBKTNV-1" source="er_MESsq9Puh83xAirkI-32" target="er_MESsq9Puh83xAirkI-35">
          <mxGeometry relative="1" as="geometry" />
        </mxCell>
        <mxCell id="er_MESsq9Puh83xAirkI-32" value="print&amp;nbsp;&lt;div&gt;&lt;span style=&quot;text-align: start; line-height: 18.4px; font-family: Aptos, sans-serif;&quot;&gt;&lt;font style=&quot;font-size: 12px;&quot;&gt;milesPerGallon&lt;/font&gt;&lt;/span&gt;&lt;br&gt;&lt;/div&gt;" style="shape=parallelogram;perimeter=parallelogramPerimeter;whiteSpace=wrap;html=1;fixedSize=1;" vertex="1" parent="WIyWlLk6GJQsqaUBKTNV-1">
          <mxGeometry x="446" y="205" width="140" height="60" as="geometry" />
        </mxCell>
        <mxCell id="er_MESsq9Puh83xAirkI-33" style="edgeStyle=orthogonalEdgeStyle;rounded=0;orthogonalLoop=1;jettySize=auto;html=1;" edge="1" parent="WIyWlLk6GJQsqaUBKTNV-1" source="er_MESsq9Puh83xAirkI-34" target="er_MESsq9Puh83xAirkI-30">
          <mxGeometry relative="1" as="geometry" />
        </mxCell>
        <mxCell id="er_MESsq9Puh83xAirkI-34" value="start" style="ellipse;whiteSpace=wrap;html=1;" vertex="1" parent="WIyWlLk6GJQsqaUBKTNV-1">
          <mxGeometry x="144" y="30" width="80" height="50" as="geometry" />
        </mxCell>
        <mxCell id="er_MESsq9Puh83xAirkI-35" value="stop" style="ellipse;whiteSpace=wrap;html=1;" vertex="1" parent="WIyWlLk6GJQsqaUBKTNV-1">
          <mxGeometry x="606" y="210" width="80" height="50" as="geometry" />
        </mxCell>
        <mxCell id="er_MESsq9Puh83xAirkI-36" value="" style="edgeStyle=orthogonalEdgeStyle;rounded=0;orthogonalLoop=1;jettySize=auto;html=1;" edge="1" parent="WIyWlLk6GJQsqaUBKTNV-1" target="er_MESsq9Puh83xAirkI-32">
          <mxGeometry relative="1" as="geometry">
            <mxPoint x="426" y="235" as="sourcePoint" />
          </mxGeometry>
        </mxCell>
        <mxCell id="er_MESsq9Puh83xAirkI-37" value="&lt;p style=&quot;margin: 0in 0in 0in 13pt; line-height: 18.4px; font-family: Aptos, sans-serif;&quot; class=&quot;MsoNormal&quot;&gt;milesPerGallon = milesTraveled / gallonsOfGasUsed&lt;/p&gt;" style="rounded=0;whiteSpace=wrap;html=1;" vertex="1" parent="WIyWlLk6GJQsqaUBKTNV-1">
          <mxGeometry x="266" y="200" width="160" height="70" as="geometry" />
        </mxCell>
        <mxCell id="er_MESsq9Puh83xAirkI-41" value="" style="edgeStyle=orthogonalEdgeStyle;rounded=0;orthogonalLoop=1;jettySize=auto;html=1;" edge="1" parent="WIyWlLk6GJQsqaUBKTNV-1" source="er_MESsq9Puh83xAirkI-39">
          <mxGeometry relative="1" as="geometry">
            <mxPoint x="266" y="235" as="targetPoint" />
          </mxGeometry>
        </mxCell>
        <mxCell id="er_MESsq9Puh83xAirkI-39" value="&lt;font style=&quot;font-size: 11px;&quot;&gt;input&lt;/font&gt;&lt;font style=&quot;font-size: 11px;&quot;&gt;&lt;font style=&quot;font-size: 11px;&quot;&gt;&amp;nbsp;&lt;/font&gt;&lt;/font&gt;&lt;div&gt;&lt;font style=&quot;font-size: 11px;&quot;&gt;&lt;span style=&quot;text-align: start; line-height: 18.4px; font-family: Aptos, sans-serif;&quot;&gt;gallonsOfGasUsed&lt;/span&gt;&lt;/font&gt;&lt;br&gt;&lt;/div&gt;" style="shape=parallelogram;perimeter=parallelogramPerimeter;whiteSpace=wrap;html=1;fixedSize=1;" vertex="1" parent="WIyWlLk6GJQsqaUBKTNV-1">
          <mxGeometry x="120" y="205" width="126" height="60" as="geometry" />
        </mxCell>
        <mxCell id="er_MESsq9Puh83xAirkI-42" style="edgeStyle=orthogonalEdgeStyle;rounded=0;orthogonalLoop=1;jettySize=auto;html=1;entryX=0;entryY=0.5;entryDx=0;entryDy=0;" edge="1" parent="WIyWlLk6GJQsqaUBKTNV-1" source="er_MESsq9Puh83xAirkI-43" target="er_MESsq9Puh83xAirkI-50">
          <mxGeometry relative="1" as="geometry">
            <mxPoint x="240" y="820" as="targetPoint" />
          </mxGeometry>
        </mxCell>
        <mxCell id="er_MESsq9Puh83xAirkI-43" value="&lt;font style=&quot;font-size: 11px;&quot;&gt;input&lt;/font&gt;&lt;font style=&quot;font-size: 11px;&quot;&gt;&lt;font style=&quot;font-size: 11px;&quot;&gt;&amp;nbsp;&lt;/font&gt;&lt;/font&gt;&lt;div&gt;&lt;font style=&quot;font-size: 11px;&quot;&gt;&lt;span style=&quot;text-align: start; line-height: 18.4px; font-family: Aptos, sans-serif;&quot;&gt;costMonthlyRent&lt;/span&gt;&lt;/font&gt;&lt;span style=&quot;font-family: -webkit-standard; font-size: medium; text-align: start;&quot;&gt;&lt;/span&gt;&lt;br&gt;&lt;/div&gt;" style="shape=parallelogram;perimeter=parallelogramPerimeter;whiteSpace=wrap;html=1;fixedSize=1;" vertex="1" parent="WIyWlLk6GJQsqaUBKTNV-1">
          <mxGeometry x="110" y="680" width="120" height="60" as="geometry" />
        </mxCell>
        <mxCell id="er_MESsq9Puh83xAirkI-44" value="" style="edgeStyle=orthogonalEdgeStyle;rounded=0;orthogonalLoop=1;jettySize=auto;html=1;" edge="1" parent="WIyWlLk6GJQsqaUBKTNV-1" source="er_MESsq9Puh83xAirkI-45" target="er_MESsq9Puh83xAirkI-48">
          <mxGeometry relative="1" as="geometry" />
        </mxCell>
        <mxCell id="er_MESsq9Puh83xAirkI-45" value="print&amp;nbsp;&lt;div&gt;&lt;span style=&quot;text-align: start; line-height: 18.4px; font-family: Aptos, sans-serif;&quot;&gt;&lt;font style=&quot;font-size: 12px;&quot;&gt;costPerDay&lt;/font&gt;&lt;/span&gt;&lt;span style=&quot;font-family: -webkit-standard; font-size: medium; text-align: start;&quot;&gt;&lt;/span&gt;&lt;br&gt;&lt;/div&gt;" style="shape=parallelogram;perimeter=parallelogramPerimeter;whiteSpace=wrap;html=1;fixedSize=1;" vertex="1" parent="WIyWlLk6GJQsqaUBKTNV-1">
          <mxGeometry x="450" y="775" width="140" height="60" as="geometry" />
        </mxCell>
        <mxCell id="er_MESsq9Puh83xAirkI-46" style="edgeStyle=orthogonalEdgeStyle;rounded=0;orthogonalLoop=1;jettySize=auto;html=1;" edge="1" parent="WIyWlLk6GJQsqaUBKTNV-1" source="er_MESsq9Puh83xAirkI-47" target="er_MESsq9Puh83xAirkI-43">
          <mxGeometry relative="1" as="geometry" />
        </mxCell>
        <mxCell id="er_MESsq9Puh83xAirkI-47" value="start" style="ellipse;whiteSpace=wrap;html=1;" vertex="1" parent="WIyWlLk6GJQsqaUBKTNV-1">
          <mxGeometry x="130" y="600" width="80" height="50" as="geometry" />
        </mxCell>
        <mxCell id="er_MESsq9Puh83xAirkI-48" value="stop" style="ellipse;whiteSpace=wrap;html=1;" vertex="1" parent="WIyWlLk6GJQsqaUBKTNV-1">
          <mxGeometry x="610" y="780" width="80" height="50" as="geometry" />
        </mxCell>
        <mxCell id="er_MESsq9Puh83xAirkI-49" value="" style="edgeStyle=orthogonalEdgeStyle;rounded=0;orthogonalLoop=1;jettySize=auto;html=1;" edge="1" parent="WIyWlLk6GJQsqaUBKTNV-1" source="er_MESsq9Puh83xAirkI-50" target="er_MESsq9Puh83xAirkI-45">
          <mxGeometry relative="1" as="geometry" />
        </mxCell>
        <mxCell id="er_MESsq9Puh83xAirkI-50" value="&lt;p style=&quot;margin: 0in 0in 0in 13pt; line-height: 18.4px; font-family: Aptos, sans-serif;&quot; class=&quot;MsoNormal&quot;&gt;costPerDay = costMonthlyRent / 30&lt;/p&gt;" style="rounded=0;whiteSpace=wrap;html=1;" vertex="1" parent="WIyWlLk6GJQsqaUBKTNV-1">
          <mxGeometry x="270" y="770" width="160" height="70" as="geometry" />
        </mxCell>
      </root>
    </mxGraphModel>
  </diagram>
</mxfile>
